<svg width="54" height="26" viewBox="0 0 54 26" fill="none" xmlns="http://www.w3.org/2000/svg">
<path d="M15.84 25V6.964H24.336V0.879999H0.54V6.964H9.072V25H15.84ZM39.9026 25.36C48.5066 25.36 53.4026 20.464 53.4026 12.94C53.4026 5.416 48.5066 0.52 39.9026 0.52C31.5146 0.52 26.5466 5.416 26.5466 12.94C26.5466 20.464 31.5146 25.36 39.9026 25.36ZM39.9026 18.88C35.0066 18.88 33.7466 17.728 33.7466 12.94C33.7466 8.152 35.0066 7 39.9026 7C44.7986 7 46.2026 8.152 46.2026 12.94C46.2026 17.728 44.7986 18.88 39.9026 18.88Z" fill="white"/>
</svg>
